{
  "accessors": [
    {
      "bufferView": 2,
      "componentType": 5126,
      "count": 65532,
      "max": [
        33.907318115234375,
        155.70770263671875,
        26.586669921875
      ],
      "min": [
        -34.594242095947266,
        67.4339828491211,
        -34.70145797729492
      ],
      "type": "VEC3"
    },
    {
      "bufferView": 2,
      "byteOffset": 786384,
      "componentType": 5126,
      "count": 65532,
      "max": [
        0.9999527335166931,
        0.9998916983604431,
        0.9999999403953552
      ],
      "min": [
        -0.9999955892562866,
        -0.9998868107795715,
        -0.9999838471412659
      ],
      "type": "VEC3"
    },
    {
      "bufferView": 3,
      "componentType": 5126,
      "count": 65532,
      "max": [
        1.0,
        0.9999999403953552,
        0.9999997615814209,
        1.0
      ],
      "min": [
        -1.0,
        -0.9999996423721313,
        -1.0,
        -1.0
      ],
      "type": "VEC4"
    },
    {
      "bufferView": 1,
      "componentType": 5126,
      "count": 65532,
      "max": [
        0.999500036239624,
        0.9964938163757324
      ],
      "min": [
        0.0005000000237487257,
        0.0005000000237487257
      ],
      "type": "VEC2"
    },
    {
      "bufferView": 0,
      "componentType": 5125,
      "count": 294201,
      "type": "SCALAR"
    },
    {
      "bufferView": 2,
      "byteOffset": 1572768,
      "componentType": 5126,
      "count": 65532,
      "max": [
        33.861488342285156,
        152.7240447998047,
        26.528427124023438
      ],
      "min": [
        -34.54841995239258,
        67.4339828491211,
        -32.92263412475586
      ],
      "type": "VEC3"
    },
    {
      "bufferView": 2,
      "byteOffset": 2359152,
      "componentType": 5126,
      "count": 65532,
      "max": [
        0.9999810457229614,
        0.9999883770942688,
        0.9999929666519165
      ],
      "min": [
        -0.9999908804893494,
        -0.9999740719795227,
        -0.9999813437461853
      ],
      "type": "VEC3"
    },
    {
      "bufferView": 3,
      "byteOffset": 1048512,
      "componentType": 5126,
      "count": 65532,
      "max": [
        0.9999988079071045,
        0.9999367594718933,
        0.9999804496765137,
        1.0
      ],
      "min": [
        -0.9999999403953552,
        -0.9999843239784241,
        -0.9999942183494568,
        -1.0
      ],
      "type": "VEC4"
    },
    {
      "bufferView": 1,
      "byteOffset": 524256,
      "componentType": 5126,
      "count": 65532,
      "max": [
        0.9886453151702881,
        0.9978876113891602
      ],
      "min": [
        0.0005000000237487257,
        0.0005000000237487257
      ],
      "type": "VEC2"
    },
    {
      "bufferView": 0,
      "byteOffset": 1176804,
      "componentType": 5125,
      "count": 277941,
      "type": "SCALAR"
    },
    {
      "bufferView": 2,
      "byteOffset": 3145536,
      "componentType": 5126,
      "count": 65532,
      "max": [
        33.907318115234375,
        146.82969665527344,
        26.586669921875
      ],
      "min": [
        -34.594242095947266,
        67.45679473876953,
        -34.73701858520508
      ],
      "type": "VEC3"
    },
    {
      "bufferView": 2,
      "byteOffset": 3931920,
      "componentType": 5126,
      "count": 65532,
      "max": [
        0.9999858736991882,
        0.9997152090072632,
        0.9999211430549622
      ],
      "min": [
        -0.9999856948852539,
        -0.9996824860572815,
        -0.9999775290489197
      ],
      "type": "VEC3"
    },
    {
      "bufferView": 3,
      "byteOffset": 2097024,
      "componentType": 5126,
      "count": 65532,
      "max": [
        0.9999814033508301,
        0.9999673366546631,
        0.9999870657920837,
        1.0
      ],
      "min": [
        -0.9999929666519165,
        -0.9999204874038696,
        -0.9999383091926575,
        -1.0
      ],
      "type": "VEC4"
    },
    {
      "bufferView": 1,
      "byteOffset": 1048512,
      "componentType": 5126,
      "count": 65532,
      "max": [
        0.9886453151702881,
        0.9978876113891602
      ],
      "min": [
        0.0005000000237487257,
        0.0005000000237487257
      ],
      "type": "VEC2"
    },
    {
      "bufferView": 0,
      "byteOffset": 2288568,
      "componentType": 5125,
      "count": 371832,
      "type": "SCALAR"
    },
    {
      "bufferView": 2,
      "byteOffset": 4718304,
      "componentType": 5126,
      "count": 36005,
      "max": [
        32.851776123046875,
        155.70770263671875,
        26.38701629638672
      ],
      "min": [
        -34.201698303222656,
        68.05000305175781,
        -34.196685791015625
      ],
      "type": "VEC3"
    },
    {
      "bufferView": 2,
      "byteOffset": 5150364,
      "componentType": 5126,
      "count": 36005,
      "max": [
        0.999985933303833,
        0.9996439218521118,
        0.9999983906745911
      ],
      "min": [
        -0.9999955892562866,
        -0.9998074769973755,
        -0.9998982548713684
      ],
      "type": "VEC3"
    },
    {
      "bufferView": 3,
      "byteOffset": 3145536,
      "componentType": 5126,
      "count": 36005,
      "max": [
        0.9999999403953552,
        0.9997940063476563,
        0.9999895095825195,
        1.0
      ],
      "min": [
        -0.9999998807907104,
        -0.999885082244873,
        -0.9999914169311523,
        -1.0
      ],
      "type": "VEC4"
    },
    {
      "bufferView": 1,
      "byteOffset": 1572768,
      "componentType": 5126,
      "count": 36005,
      "max": [
        0.999500036239624,
        0.9967875480651855
      ],
      "min": [
        0.0009947570506483316,
        0.0005000000237487257
      ],
      "type": "VEC2"
    },
    {
      "bufferView": 0,
      "byteOffset": 3775896,
      "componentType": 5125,
      "count": 142896,
      "type": "SCALAR"
    }
  ],
  "asset": {
    "extras": {
      "author": "Aleksei Moskvin (https://sketchfab.com/alekseimoskvin1)",
      "license": "CC-BY-4.0 (http://creativecommons.org/licenses/by/4.0/)",
      "source": "https://sketchfab.com/3d-models/1875-jacket-9d3fed22ee7342f792f57bef8d1967ed",
      "title": "1875 Jacket"
    },
    "generator": "Sketchfab-14.15.0",
    "version": "2.0"
  },
  "bufferViews": [
    {
      "buffer": 0,
      "byteLength": 4347480,
      "name": "floatBufferViews",
      "target": 34963
    },
    {
      "buffer": 0,
      "byteLength": 1860808,
      "byteOffset": 4347480,
      "byteStride": 8,
      "name": "floatBufferViews",
      "target": 34962
    },
    {
      "buffer": 0,
      "byteLength": 5582424,
      "byteOffset": 6208288,
      "byteStride": 12,
      "name": "floatBufferViews",
      "target": 34962
    },
    {
      "buffer": 0,
      "byteLength": 3721616,
      "byteOffset": 11790712,
      "byteStride": 16,
      "name": "floatBufferViews",
      "target": 34962
    }
  ],
  "buffers": [
    {
      "byteLength": 15512328,
      "uri": "scene.bin"
    }
  ],
  "images": [
    {
      "uri": "textures/06_Jacket_baseColor.jpeg"
    },
    {
      "uri": "textures/06_Jacket_metallicRoughness.png"
    },
    {
      "uri": "textures/06_Jacket_normal.png"
    }
  ],
  "materials": [
    {
      "doubleSided": true,
      "name": "06_Jacket",
      "normalTexture": {
        "index": 2
      },
      "pbrMetallicRoughness": {
        "baseColorTexture": {
          "index": 0
        },
        "metallicRoughnessTexture": {
          "index": 1
        }
      }
    }
  ],
  "meshes": [
    {
      "name": "06_Jacket_06_Jacket_0",
      "primitives": [
        {
          "attributes": {
            "NORMAL": 1,
            "POSITION": 0,
            "TANGENT": 2,
            "TEXCOORD_0": 3
          },
          "indices": 4,
          "material": 0,
          "mode": 4
        }
      ]
    },
    {
      "name": "06_Jacket_06_Jacket_0",
      "primitives": [
        {
          "attributes": {
            "NORMAL": 6,
            "POSITION": 5,
            "TANGENT": 7,
            "TEXCOORD_0": 8
          },
          "indices": 9,
          "material": 0,
          "mode": 4
        }
      ]
    },
    {
      "name": "06_Jacket_06_Jacket_0",
      "primitives": [
        {
          "attributes": {
            "NORMAL": 11,
            "POSITION": 10,
            "TANGENT": 12,
            "TEXCOORD_0": 13
          },
          "indices": 14,
          "material": 0,
          "mode": 4
        }
      ]
    },
    {
      "name": "06_Jacket_06_Jacket_0",
      "primitives": [
        {
          "attributes": {
            "NORMAL": 16,
            "POSITION": 15,
            "TANGENT": 17,
            "TEXCOORD_0": 18
          },
          "indices": 19,
          "material": 0,
          "mode": 4
        }
      ]
    }
  ],
  "nodes": [
    {
      "children": [
        1
      ],
      "matrix": [
        1.0,
        0.0,
        0.0,
        0.0,
        0.0,
        2.220446049250313e-16,
        -1.0,
        0.0,
        0.0,
        1.0,
        2.220446049250313e-16,
        0.0,
        0.0,
        0.0,
        0.0,
        1.0
      ],
      "name": "Sketchfab_model"
    },
    {
      "children": [
        2
      ],
      "matrix": [
        0.0010000000474974513,
        0.0,
        0.0,
        0.0,
        0.0,
        0.0,
        0.0010000000474974513,
        0.0,
        0.0,
        -0.0010000000474974513,
        0.0,
        0.0,
        0.0,
        0.0,
        0.0,
        1.0
      ],
      "name": "06_Jacket.fbx"
    },
    {
      "children": [
        3
      ],
      "name": "RootNode"
    },
    {
      "children": [
        4
      ],
      "matrix": [
        10.0,
        0.0,
        0.0,
        0.0,
        0.0,
        9.99999999999999,
        4.371139006309477e-07,
        0.0,
        0.0,
        -4.371139006309477e-07,
        9.99999999999999,
        0.0,
        0.0,
        0.0,
        0.0,
        1.0
      ],
      "name": "06"
    },
    {
      "children": [
        5,
        6,
        7,
        8
      ],
      "matrix": [
        1.0,
        0.0,
        0.0,
        0.0,
        0.0,
        0.9999999999999929,
        1.1920928244535307e-07,
        0.0,
        0.0,
        -1.1920928244535307e-07,
        0.9999999999999929,
        0.0,
        0.0,
        0.0,
        0.0,
        1.0
      ],
      "name": "06_Jacket"
    },
    {
      "mesh": 0,
      "name": "06_Jacket_06_Jacket_0"
    },
    {
      "mesh": 1,
      "name": "06_Jacket_06_Jacket_0"
    },
    {
      "mesh": 2,
      "name": "06_Jacket_06_Jacket_0"
    },
    {
      "mesh": 3,
      "name": "06_Jacket_06_Jacket_0"
    }
  ],
  "samplers": [
    {
      "magFilter": 9729,
      "minFilter": 9987,
      "wrapS": 10497,
      "wrapT": 10497
    }
  ],
  "scene": 0,
  "scenes": [
    {
      "name": "Sketchfab_Scene",
      "nodes": [
        0
      ]
    }
  ],
  "textures": [
    {
      "sampler": 0,
      "source": 0
    },
    {
      "sampler": 0,
      "source": 1
    },
    {
      "sampler": 0,
      "source": 2
    }
  ]
}
