{
  "accessors": [
    {
      "bufferView": 2,
      "componentType": 5126,
      "count": 65532,
      "max": [
        851.9044189453125,
        703.7003784179688,
        8.402912139892578
      ],
      "min": [
        -249.01806640625,
        201.6405792236328,
        -376.5821533203125
      ],
      "type": "VEC3"
    },
    {
      "bufferView": 2,
      "byteOffset": 786384,
      "componentType": 5126,
      "count": 65532,
      "max": [
        0.9649333953857422,
        0.9999933242797852,
        0.9999939799308777
      ],
      "min": [
        -0.9973892569541931,
        -0.999997079372406,
        -0.9999987483024597
      ],
      "type": "VEC3"
    },
    {
      "bufferView": 1,
      "componentType": 5126,
      "count": 65532,
      "max": [
        0.9867600202560425,
        0.9718400239944458
      ],
      "min": [
        0.008949999697506428,
        0.009060000069439411
      ],
      "type": "VEC2"
    },
    {
      "bufferView": 0,
      "componentType": 5125,
      "count": 290793,
      "type": "SCALAR"
    },
    {
      "bufferView": 2,
      "byteOffset": 1572768,
      "componentType": 5126,
      "count": 65532,
      "max": [
        923.0345458984375,
        713.6917724609375,
        -4.553329944610596
      ],
      "min": [
        -232.09974670410156,
        212.14776611328125,
        -370.8461608886719
      ],
      "type": "VEC3"
    },
    {
      "bufferView": 2,
      "byteOffset": 2359152,
      "componentType": 5126,
      "count": 65532,
      "max": [
        0.9999485015869141,
        0.999955952167511,
        0.9999950528144836
      ],
      "min": [
        -0.9991880059242249,
        -0.9999988079071045,
        -0.9999986886978149
      ],
      "type": "VEC3"
    },
    {
      "bufferView": 1,
      "byteOffset": 524256,
      "componentType": 5126,
      "count": 65532,
      "max": [
        0.9943400025367737,
        0.9678400158882141
      ],
      "min": [
        0.02191999927163124,
        0.008080000057816505
      ],
      "type": "VEC2"
    },
    {
      "bufferView": 0,
      "byteOffset": 1163172,
      "componentType": 5125,
      "count": 307254,
      "type": "SCALAR"
    },
    {
      "bufferView": 2,
      "byteOffset": 3145536,
      "componentType": 5126,
      "count": 65532,
      "max": [
        916.704833984375,
        714.3617553710938,
        11.530434608459473
      ],
      "min": [
        -257.3294677734375,
        202.3965606689453,
        -374.6571350097656
      ],
      "type": "VEC3"
    },
    {
      "bufferView": 2,
      "byteOffset": 3931920,
      "componentType": 5126,
      "count": 65532,
      "max": [
        0.9972439408302307,
        0.9999931454658508,
        0.999997615814209
      ],
      "min": [
        -0.9997990131378174,
        -0.9999943971633911,
        -0.99998939037323
      ],
      "type": "VEC3"
    },
    {
      "bufferView": 1,
      "byteOffset": 1048512,
      "componentType": 5126,
      "count": 65532,
      "max": [
        0.9836099743843079,
        0.9844099879264832
      ],
      "min": [
        0.01939000003039837,
        0.010130000300705433
      ],
      "type": "VEC2"
    },
    {
      "bufferView": 0,
      "byteOffset": 2392188,
      "componentType": 5125,
      "count": 309960,
      "type": "SCALAR"
    },
    {
      "bufferView": 2,
      "byteOffset": 4718304,
      "componentType": 5126,
      "count": 65532,
      "max": [
        923.3299560546875,
        703.7738647460938,
        11.500639915466309
      ],
      "min": [
        -255.5199432373047,
        201.59230041503906,
        -378.9999084472656
      ],
      "type": "VEC3"
    },
    {
      "bufferView": 2,
      "byteOffset": 5504688,
      "componentType": 5126,
      "count": 65532,
      "max": [
        0.9696760773658752,
        0.999998927116394,
        1.0
      ],
      "min": [
        -0.9885447025299072,
        -0.9999963641166687,
        -0.9999982714653015
      ],
      "type": "VEC3"
    },
    {
      "bufferView": 1,
      "byteOffset": 1572768,
      "componentType": 5126,
      "count": 65532,
      "max": [
        0.9910100102424622,
        0.9950799942016602
      ],
      "min": [
        0.004559999797493219,
        0.008030000142753124
      ],
      "type": "VEC2"
    },
    {
      "bufferView": 0,
      "byteOffset": 3632028,
      "componentType": 5125,
      "count": 313566,
      "type": "SCALAR"
    },
    {
      "bufferView": 2,
      "byteOffset": 6291072,
      "componentType": 5126,
      "count": 65532,
      "max": [
        918.85400390625,
        711.375,
        10.66227912902832
      ],
      "min": [
        -254.31668090820313,
        203.18063354492188,
        -372.4412841796875
      ],
      "type": "VEC3"
    },
    {
      "bufferView": 2,
      "byteOffset": 7077456,
      "componentType": 5126,
      "count": 65532,
      "max": [
        0.9811387062072754,
        0.9999997615814209,
        0.9999997019767761
      ],
      "min": [
        -0.9879568219184875,
        -0.9999932050704956,
        -0.9999881982803345
      ],
      "type": "VEC3"
    },
    {
      "bufferView": 1,
      "byteOffset": 2097024,
      "componentType": 5126,
      "count": 65532,
      "max": [
        0.976610004901886,
        0.9722800254821777
      ],
      "min": [
        0.0019499999471008778,
        0.008430000394582748
      ],
      "type": "VEC2"
    },
    {
      "bufferView": 0,
      "byteOffset": 4886292,
      "componentType": 5125,
      "count": 300627,
      "type": "SCALAR"
    },
    {
      "bufferView": 2,
      "byteOffset": 7863840,
      "componentType": 5126,
      "count": 65533,
      "max": [
        923.167724609375,
        713.6009521484375,
        11.249120712280273
      ],
      "min": [
        -256.0401306152344,
        202.1288299560547,
        -376.24468994140625
      ],
      "type": "VEC3"
    },
    {
      "bufferView": 2,
      "byteOffset": 8650236,
      "componentType": 5126,
      "count": 65533,
      "max": [
        0.9987844228744507,
        0.999997079372406,
        0.9999970197677612
      ],
      "min": [
        -0.9996091723442078,
        -0.9999884963035583,
        -0.9999982714653015
      ],
      "type": "VEC3"
    },
    {
      "bufferView": 1,
      "byteOffset": 2621280,
      "componentType": 5126,
      "count": 65533,
      "max": [
        0.9980400204658508,
        0.9895200133323669
      ],
      "min": [
        0.00901000015437603,
        0.0019499999471008778
      ],
      "type": "VEC2"
    },
    {
      "bufferView": 0,
      "byteOffset": 6088800,
      "componentType": 5125,
      "count": 275436,
      "type": "SCALAR"
    },
    {
      "bufferView": 2,
      "byteOffset": 9436632,
      "componentType": 5126,
      "count": 57991,
      "max": [
        922.8250732421875,
        713.776123046875,
        11.4494047164917
      ],
      "min": [
        -254.7038116455078,
        201.6405792236328,
        -378.9999084472656
      ],
      "type": "VEC3"
    },
    {
      "bufferView": 2,
      "byteOffset": 10132524,
      "componentType": 5126,
      "count": 57991,
      "max": [
        0.9999485015869141,
        0.9999940991401672,
        0.9999997019767761
      ],
      "min": [
        -0.9996485114097595,
        -0.9999922513961792,
        -0.9999986886978149
      ],
      "type": "VEC3"
    },
    {
      "bufferView": 1,
      "byteOffset": 3145544,
      "componentType": 5126,
      "count": 57991,
      "max": [
        0.9910399913787842,
        0.9972800016403198
      ],
      "min": [
        0.004209999926388264,
        0.004920000210404396
      ],
      "type": "VEC2"
    },
    {
      "bufferView": 0,
      "byteOffset": 7190544,
      "componentType": 5125,
      "count": 151128,
      "type": "SCALAR"
    }
  ],
  "asset": {
    "extras": {
      "author": "Taylor (https://sketchfab.com/thoulihan)",
      "license": "CC-BY-4.0 (http://creativecommons.org/licenses/by/4.0/)",
      "source": "https://sketchfab.com/3d-models/pakistani-blouse-973f09079dff48aeb7bb1be726354c01",
      "title": "Pakistani Blouse"
    },
    "generator": "Sketchfab-12.68.0",
    "version": "2.0"
  },
  "bufferViews": [
    {
      "buffer": 0,
      "byteLength": 7795056,
      "name": "floatBufferViews",
      "target": 34963
    },
    {
      "buffer": 0,
      "byteLength": 3609472,
      "byteOffset": 7795056,
      "byteStride": 8,
      "name": "floatBufferViews",
      "target": 34962
    },
    {
      "buffer": 0,
      "byteLength": 10828416,
      "byteOffset": 11404528,
      "byteStride": 12,
      "name": "floatBufferViews",
      "target": 34962
    }
  ],
  "buffers": [
    {
      "byteLength": 22232944,
      "uri": "scene.bin"
    }
  ],
  "images": [
    {
      "uri": "textures/defaultMat_baseColor.jpeg"
    }
  ],
  "materials": [
    {
      "doubleSided": true,
      "name": "defaultMat",
      "pbrMetallicRoughness": {
        "baseColorTexture": {
          "index": 0
        },
        "metallicFactor": 0.0
      }
    }
  ],
  "meshes": [
    {
      "name": "Object_0",
      "primitives": [
        {
          "attributes": {
            "NORMAL": 1,
            "POSITION": 0,
            "TEXCOORD_0": 2
          },
          "indices": 3,
          "material": 0,
          "mode": 4
        }
      ]
    },
    {
      "name": "Object_1",
      "primitives": [
        {
          "attributes": {
            "NORMAL": 5,
            "POSITION": 4,
            "TEXCOORD_0": 6
          },
          "indices": 7,
          "material": 0,
          "mode": 4
        }
      ]
    },
    {
      "name": "Object_2",
      "primitives": [
        {
          "attributes": {
            "NORMAL": 9,
            "POSITION": 8,
            "TEXCOORD_0": 10
          },
          "indices": 11,
          "material": 0,
          "mode": 4
        }
      ]
    },
    {
      "name": "Object_3",
      "primitives": [
        {
          "attributes": {
            "NORMAL": 13,
            "POSITION": 12,
            "TEXCOORD_0": 14
          },
          "indices": 15,
          "material": 0,
          "mode": 4
        }
      ]
    },
    {
      "name": "Object_4",
      "primitives": [
        {
          "attributes": {
            "NORMAL": 17,
            "POSITION": 16,
            "TEXCOORD_0": 18
          },
          "indices": 19,
          "material": 0,
          "mode": 4
        }
      ]
    },
    {
      "name": "Object_5",
      "primitives": [
        {
          "attributes": {
            "NORMAL": 21,
            "POSITION": 20,
            "TEXCOORD_0": 22
          },
          "indices": 23,
          "material": 0,
          "mode": 4
        }
      ]
    },
    {
      "name": "Object_6",
      "primitives": [
        {
          "attributes": {
            "NORMAL": 25,
            "POSITION": 24,
            "TEXCOORD_0": 26
          },
          "indices": 27,
          "material": 0,
          "mode": 4
        }
      ]
    }
  ],
  "nodes": [
    {
      "children": [
        1
      ],
      "matrix": [
        0.029150402173399925,
        0.9995720982551575,
        -0.0024130395613608524,
        0.0,
        -0.08249678462743759,
        2.2128772804710039e-16,
        -0.996591329574585,
        0.0,
        -0.9961649179458618,
        0.029250105842947943,
        0.08246148377656937,
        0.0,
        -1.302947759628296,
        -0.9637020826339723,
        0.576258063316345,
        1.0
      ],
      "name": "Sketchfab_model"
    },
    {
      "children": [
        2,
        3,
        4,
        5,
        6,
        7,
        8
      ],
      "name": "pakistani-dress_650k_cm.OBJ.cleaner.materialmerger.gles"
    },
    {
      "mesh": 0,
      "name": "Object_2"
    },
    {
      "mesh": 1,
      "name": "Object_3"
    },
    {
      "mesh": 2,
      "name": "Object_4"
    },
    {
      "mesh": 3,
      "name": "Object_5"
    },
    {
      "mesh": 4,
      "name": "Object_6"
    },
    {
      "mesh": 5,
      "name": "Object_7"
    },
    {
      "mesh": 6,
      "name": "Object_8"
    }
  ],
  "samplers": [
    {
      "magFilter": 9729,
      "minFilter": 9987,
      "wrapS": 10497,
      "wrapT": 10497
    }
  ],
  "scene": 0,
  "scenes": [
    {
      "name": "Sketchfab_Scene",
      "nodes": [
        0
      ]
    }
  ],
  "textures": [
    {
      "sampler": 0,
      "source": 0
    }
  ]
}
